# xmcd
#
# Track frame offsets:
#	150
#	19949
#	39656
#	54789
#	74975
#	92406
#	114357
#	129913
#	145389
#	163563
#	185227
#	205789
#	223628
#	247393
#	263304
#
# Disc length: 3734 seconds
# Revision: 1
# Processed by: cddbd v1.5.2PL0 Copyright (c) Steve Scherf et al.
# Submitted via: dBpowerAMP V12.0
#
DISCID=dc0e940f
DTITLE=Various Artist - This One's for Him - A Tribute to Guy Clark, Disc 2
DYEAR=2011
DGENRE=Country
TTITLE0=Joe Ely - Dubllin Blues
TTITLE1=Emmylou Harris and John Prine - Magnolia Wind
TTITLE2=Steve Earle - The Last Gunfighter Ballad
TTITLE3=Verlon Thompson - All Through Throwing Good Love After Bad
TTITLE4=Terri Hendrix - The Dark
TTITLE5=Radney Foster - L.A. Freeway
TTITLE6=Patty Griffin - The Cape
TTITLE7=Kris Kristofferson - Hemingway's Whiskey
TTITLE8=Gary Nicholson, Darrell Scott and Tim O'Brien - Texas Cookin'
TTITLE9=Jack Ingram - Stuff That Works
TTITLE10=Vince Gill - Randall Knife
TTITLE11=Robert Earl Keen - Texas 1947
TTITLE12=Terry Allen - Old Friends
TTITLE13=The Trishas - She Ain't Goin' Nowhere
TTITLE14=Jerry Jeff Walker - My Favorite Picture of You
EXTD=
EXTT0=
EXTT1=
EXTT2=
EXTT3=
EXTT4=
EXTT5=
EXTT6=
EXTT7=
EXTT8=
EXTT9=
EXTT10=
EXTT11=
EXTT12=
EXTT13=
EXTT14=
PLAYORDER=
